<svg width="32" height="33" viewBox="0 0 32 33" fill="none" xmlns="http://www.w3.org/2000/svg">
<g clip-path="url(#clip0_3310_9842)">
<path d="M23.5862 2.21997H8.41372C4.71686 2.21997 1.71997 5.21686 1.71997 8.91372V24.0862C1.71997 27.7831 4.71686 30.78 8.41372 30.78H23.5862C27.2831 30.78 30.28 27.7831 30.28 24.0862V8.91372C30.28 5.21686 27.2831 2.21997 23.5862 2.21997Z" fill="white"/>
<path d="M23.5862 2.21997H8.41372C4.71686 2.21997 1.71997 5.21686 1.71997 8.91372V24.0862C1.71997 27.7831 4.71686 30.78 8.41372 30.78H23.5862C27.2831 30.78 30.28 27.7831 30.28 24.0862V8.91372C30.28 5.21686 27.2831 2.21997 23.5862 2.21997Z" fill="#1D9BF0"/>
<path d="M23.9847 12.4181C23.997 12.5951 23.997 12.7722 23.997 12.9509C23.997 18.3948 19.8527 24.6733 12.2746 24.6733V24.67C10.0359 24.6732 7.84353 24.032 5.95935 22.823C6.28489 22.8622 6.61199 22.8817 6.93999 22.8825C8.79545 22.884 10.5975 22.2616 12.0567 21.1155C11.197 21.0992 10.3638 20.8147 9.67376 20.3017C8.98367 19.7888 8.47112 19.073 8.20778 18.2544C8.82503 18.3735 9.46136 18.3492 10.0678 18.1835C8.14575 17.7951 6.76294 16.1064 6.76294 14.1452V14.0929C7.33591 14.4121 7.97716 14.5889 8.63272 14.6086C6.82251 13.3987 6.26447 10.9904 7.35756 9.10744C8.39189 10.3803 9.68241 11.4212 11.1453 12.1628C12.6081 12.9044 14.2107 13.3299 15.8487 13.4117C15.6854 12.7087 15.7095 11.9751 15.9187 11.2844C16.1278 10.5936 16.5147 9.96983 17.0405 9.47548C18.6999 7.91562 21.3097 7.99561 22.8695 9.65409C23.7922 9.47194 24.6769 9.1337 25.4858 8.65394C25.1782 9.60787 24.5346 10.4176 23.6747 10.9325C24.4914 10.8363 25.289 10.6176 26.0406 10.284C25.4877 11.112 24.7915 11.8346 23.9847 12.4181Z" fill="white"/>
</g>
<defs>
<clipPath id="clip0_3310_9842">
<rect width="28.8" height="28.8" fill="white" transform="translate(1.59998 2.09998)"/>
</clipPath>
</defs>
</svg>
