<svg width="24" height="24" viewBox="0 0 24 24" fill="none" xmlns="http://www.w3.org/2000/svg">
<g clip-path="url(#clip0_2912_20791)">
<path d="M14.7273 21.3646C14.7273 21.5818 14.6452 21.79 14.499 21.9436C14.3529 22.0971 14.1547 22.1834 13.9481 22.1834H11.2208C11.0141 22.1834 10.8159 22.0971 10.6698 21.9436C10.5237 21.79 10.4416 21.5818 10.4416 21.3646V16.452C10.4416 16.2349 10.5237 16.0266 10.6698 15.8731C10.8159 15.7195 11.0141 15.6333 11.2208 15.6333C11.4274 15.6333 11.6256 15.7195 11.7718 15.8731C11.9179 16.0266 12 16.2349 12 16.452V20.5459H13.9481C14.1547 20.5459 14.3529 20.6321 14.499 20.7857C14.6452 20.9392 14.7273 21.1475 14.7273 21.3646ZM8.57144 15.797C8.48957 15.7325 8.39642 15.6856 8.29729 15.6589C8.19817 15.6322 8.09501 15.6263 7.99371 15.6415C7.89241 15.6567 7.79495 15.6927 7.7069 15.7475C7.61885 15.8023 7.54193 15.8748 7.48053 15.9608L6.35066 17.5471L5.22079 15.9608C5.0968 15.7871 4.9122 15.6722 4.70762 15.6415C4.50303 15.6108 4.29522 15.6667 4.12989 15.797C3.96456 15.9273 3.85526 16.1213 3.82603 16.3362C3.7968 16.5512 3.85005 16.7696 3.97404 16.9433L5.37664 18.9083L3.97404 20.8734C3.85005 21.0471 3.7968 21.2654 3.82603 21.4804C3.85526 21.6954 3.96456 21.8893 4.12989 22.0196C4.26373 22.128 4.42847 22.1857 4.59742 22.1834C4.71839 22.1834 4.8377 22.1538 4.9459 22.0969C5.05409 22.0401 5.14821 21.9576 5.22079 21.8559L6.35066 20.2695L7.48053 21.8559C7.55311 21.9576 7.64723 22.0401 7.75543 22.0969C7.86363 22.1538 7.98294 22.1834 8.10391 22.1834C8.27285 22.1857 8.4376 22.128 8.57144 22.0196C8.73677 21.8893 8.84607 21.6954 8.87529 21.4804C8.90452 21.2654 8.85128 21.0471 8.72728 20.8734L7.32469 18.9083L8.72728 16.9433C8.85128 16.7696 8.90452 16.5512 8.87529 16.3362C8.84607 16.1213 8.73677 15.9273 8.57144 15.797ZM20.5714 8.28488V12.3582C20.5714 12.5754 20.4893 12.7836 20.3432 12.9372C20.1971 13.0907 19.9989 13.177 19.7922 13.177C19.5855 13.177 19.3873 13.0907 19.2412 12.9372C19.0951 12.7836 19.013 12.5754 19.013 12.3582V9.08317H14.3377C14.131 9.08317 13.9328 8.99691 13.7867 8.84336C13.6405 8.68982 13.5584 8.48156 13.5584 8.26441V3.35183H4.98703V12.3582C4.98703 12.5754 4.90493 12.7836 4.7588 12.9372C4.61267 13.0907 4.41447 13.177 4.20781 13.177C4.00115 13.177 3.80295 13.0907 3.65682 12.9372C3.51069 12.7836 3.42859 12.5754 3.42859 12.3582V3.35183C3.42859 2.91753 3.59278 2.50102 3.88504 2.19393C4.17731 1.88683 4.5737 1.71431 4.98703 1.71431H14.3377C14.545 1.71308 14.7444 1.79764 14.8929 1.9497L20.3377 7.68104C20.4124 7.7564 20.4717 7.84702 20.5119 7.94734C20.5521 8.04766 20.5724 8.15556 20.5714 8.26441V8.28488ZM15.1169 7.44565H17.9123L15.1169 4.50834V7.44565ZM18.3993 18.0691C18.0974 17.9872 17.5617 17.8337 17.4545 17.7007V17.6802C17.4545 17.3424 17.6883 17.1685 18.1364 17.1685C18.4844 17.1759 18.8229 17.2897 19.1104 17.496H19.1006C19.242 17.6139 19.4169 17.6788 19.5974 17.6802C19.8041 17.6802 20.0023 17.5939 20.1484 17.4404C20.2945 17.2868 20.3766 17.0786 20.3766 16.8614C20.3785 16.7415 20.354 16.6228 20.305 16.5145C20.256 16.4062 20.1838 16.3113 20.0941 16.2371C19.5321 15.784 18.8447 15.5361 18.1364 15.5309C16.8214 15.5309 15.8961 16.4111 15.8961 17.6802C15.8961 18.9493 17.1623 19.4201 18 19.6554C18.3312 19.7476 18.6818 19.8397 18.8961 19.9727C19.1104 20.1058 19.013 20.0751 19.013 20.1365C19.013 20.1979 19.013 20.6482 18.1364 20.6482C17.7883 20.6407 17.4498 20.5269 17.1623 20.3207H17.1721C17.0307 20.2027 16.8558 20.1379 16.6753 20.1365C16.4687 20.1365 16.2705 20.2227 16.1243 20.3763C15.9782 20.5298 15.8961 20.7381 15.8961 20.9552C15.8942 21.0751 15.9187 21.1939 15.9677 21.3022C16.0167 21.4105 16.0889 21.5054 16.1786 21.5795C16.7406 22.0326 17.428 22.2806 18.1364 22.2857C19.6558 22.2857 20.5714 21.4772 20.5714 20.1365C20.5714 18.7957 19.2078 18.2943 18.3993 18.0691Z" fill="#222222"/>
</g>
<defs>
<clipPath id="clip0_2912_20791">
<rect width="20.5714" height="20.5714" fill="white" transform="translate(1.71429 1.71429)"/>
</clipPath>
</defs>
</svg>
