<svg width="28" height="28" viewBox="0 0 28 28" fill="none" xmlns="http://www.w3.org/2000/svg">
<path d="M16.814 7.54965V11.9312L18.3633 12.8953C18.4192 12.9074 18.4772 12.9074 18.5331 12.8953L25.1944 8.45205C25.1895 8.23641 25.1098 8.029 24.9686 7.86466C24.8274 7.70033 24.6333 7.5891 24.4189 7.54965L16.814 7.54965Z" fill="#0072C6"/>
<path d="M16.814 13.5656L18.2266 14.5257C18.2928 14.5655 18.3687 14.5866 18.4462 14.5866C18.5236 14.5866 18.5996 14.5655 18.6657 14.5257C18.4231 14.6704 25.1936 10.2232 25.1936 10.2232L25.1936 18.2761C25.2112 18.4392 25.1926 18.6043 25.1391 18.7596C25.0855 18.9149 24.9983 19.0568 24.8836 19.1753C24.7688 19.2938 24.6293 19.386 24.4747 19.4456C24.3201 19.5051 24.1543 19.5305 23.9888 19.5201L16.8132 19.5201V13.5656H16.814ZM9.50097 11.5456C9.26625 11.5445 9.0356 11.6063 8.83346 11.7243C8.63132 11.8423 8.46522 12.0122 8.35275 12.2161C8.04557 12.7563 7.89818 13.3712 7.92742 13.9904C7.8955 14.6084 8.04309 15.2225 8.35275 15.7601C8.46474 15.9555 8.62676 16.1183 8.82251 16.2322C9.01827 16.346 9.24086 16.4069 9.46793 16.4087C9.695 16.4105 9.91855 16.3531 10.1161 16.2423C10.3137 16.1316 10.4783 15.9713 10.5934 15.7776C10.8997 15.2425 11.0442 14.6317 11.0098 14.0176C11.0449 13.3844 10.9051 12.7536 10.6055 12.1929C10.4984 11.9957 10.339 11.8312 10.1443 11.7171C9.94965 11.6031 9.7272 11.5438 9.50097 11.5456Z" fill="#0072C6"/>
<path d="M2.80005 5.32405L2.80005 22.4657L15.9803 25.2001L15.9803 2.80005L2.80005 5.32405ZM11.6203 16.7928C11.3738 17.1367 11.0459 17.4157 10.6654 17.6055C10.2848 17.7953 9.86315 17.8901 9.43709 17.8816C9.02174 17.889 8.61076 17.7969 8.2391 17.6133C7.86743 17.4297 7.54608 17.1601 7.30237 16.8273C6.72436 16.0289 6.43522 15.061 6.48163 14.0801C6.43246 13.051 6.72683 12.0344 7.31935 11.1873C7.56902 10.8368 7.90201 10.5525 8.28895 10.3594C8.67589 10.1663 9.1049 10.0704 9.53816 10.08C9.9505 10.0719 10.3586 10.1639 10.7265 10.3482C11.0945 10.5325 11.4111 10.8033 11.6486 11.1368C12.2208 11.9526 12.5051 12.9323 12.4572 13.924C12.5076 14.9457 12.2132 15.9549 11.6203 16.7928Z" fill="#0072C6"/>
</svg>
