<svg width="24" height="24" viewBox="0 0 24 24" fill="none" xmlns="http://www.w3.org/2000/svg">
<g clip-path="url(#clip0_3551_10095)">
<path d="M4.61002 15.672H3.14913C2.92772 15.672 2.71539 15.758 2.55884 15.911C2.40228 16.0641 2.31433 16.2716 2.31433 16.488V21.384C2.31433 21.6004 2.40228 21.808 2.55884 21.961C2.71539 22.114 2.92772 22.2 3.14913 22.2H4.61002C5.49562 22.2 6.34495 21.8561 6.97117 21.244C7.59739 20.6319 7.94919 19.8017 7.94919 18.936C7.94919 18.0704 7.59739 17.2401 6.97117 16.628C6.34495 16.0159 5.49562 15.672 4.61002 15.672ZM4.61002 20.568H3.98392V17.304H4.61002C5.05282 17.304 5.47749 17.476 5.79059 17.782C6.1037 18.0881 6.27961 18.5032 6.27961 18.936C6.27961 19.3689 6.1037 19.784 5.79059 20.09C5.47749 20.3961 5.05282 20.568 4.61002 20.568ZM12.1232 15.672C10.4014 15.672 8.99269 17.1408 8.99269 18.936C8.99269 20.7312 10.4014 22.2 12.1232 22.2C13.8449 22.2 15.2536 20.7312 15.2536 18.936C15.2536 17.1408 13.8449 15.672 12.1232 15.672ZM12.1232 20.568C11.3197 20.568 10.6623 19.8336 10.6623 18.936C10.6623 18.0384 11.3197 17.304 12.1232 17.304C12.9267 17.304 13.5841 18.0384 13.5841 18.936C13.5841 19.8336 12.9267 20.568 12.1232 20.568ZM21.2955 20.2824C21.4449 20.442 21.5233 20.6531 21.5135 20.8693C21.5037 21.0854 21.4065 21.2889 21.2433 21.435C20.6869 21.9234 19.9667 22.1956 19.2189 22.2C17.4972 22.2 16.0884 20.7312 16.0884 18.936C16.0884 17.1408 17.4972 15.672 19.2189 15.672C19.9667 15.6764 20.6869 15.9486 21.2433 16.437C21.4065 16.5831 21.5037 16.7866 21.5135 17.0028C21.5233 17.2189 21.4449 17.43 21.2955 17.5896C21.223 17.6705 21.1346 17.7364 21.0356 17.7834C20.9366 17.8305 20.829 17.8576 20.7191 17.8633C20.6092 17.869 20.4993 17.8532 20.3957 17.8167C20.2922 17.7802 20.1972 17.7238 20.1163 17.6508C19.8713 17.4308 19.5516 17.3072 19.2189 17.304C18.4154 17.304 17.758 18.0384 17.758 18.936C17.758 19.8336 18.4154 20.568 19.2189 20.568C19.5516 20.5648 19.8713 20.4413 20.1163 20.2212C20.1972 20.1483 20.2922 20.0919 20.3957 20.0554C20.4993 20.0189 20.6092 20.003 20.7191 20.0087C20.829 20.0144 20.9366 20.0416 21.0356 20.0886C21.1346 20.1356 21.223 20.2015 21.2955 20.2824ZM3.56652 13.224C3.78792 13.224 4.00026 13.1381 4.15681 12.985C4.31337 12.832 4.40132 12.6244 4.40132 12.408V3.43203H13.5841V8.32803C13.5841 8.54444 13.672 8.752 13.8286 8.90503C13.9851 9.05806 14.1975 9.14403 14.4189 9.14403H19.4276V12.408C19.4276 12.6244 19.5156 12.832 19.6721 12.985C19.8287 13.1381 20.041 13.224 20.2624 13.224C20.4838 13.224 20.6962 13.1381 20.8527 12.985C21.0093 12.832 21.0972 12.6244 21.0972 12.408V8.32803C21.0982 8.21955 21.0765 8.11201 21.0335 8.01203C20.9904 7.91204 20.9269 7.82173 20.8468 7.74663L15.0136 2.03463C14.8546 1.88308 14.6409 1.79881 14.4189 1.80003H4.40132C3.95851 1.80003 3.53385 1.97197 3.22074 2.27803C2.90763 2.58409 2.73173 2.9992 2.73173 3.43203V12.408C2.73173 12.6244 2.81968 12.832 2.97623 12.985C3.13279 13.1381 3.34512 13.224 3.56652 13.224ZM15.2536 4.58463L18.2485 7.51203H15.2536V4.58463Z" fill="#222222"/>
</g>
<defs>
<clipPath id="clip0_3551_10095">
<rect width="20.5714" height="20.5714" fill="white" transform="translate(1.71429 1.71429)"/>
</clipPath>
</defs>
</svg>
