<svg width="32" height="18" viewBox="0 0 32 18" fill="none" xmlns="http://www.w3.org/2000/svg">
<path d="M28.5405 12.17C29.5672 13.3301 31.1351 13.4002 32 13.4726V17.1631C28.4043 17.1631 27.0819 15.8009 25.4904 14.3326C24.2823 13.218 23.4173 12.8007 22.6687 12.6042C21.9202 12.4078 20.6798 12.3871 20.0311 12.6042C19.2106 12.8788 18.936 12.7169 16.4324 14.9922C14.5568 16.6968 14.9051 16.6719 12.7403 17.6175C12.2069 17.8504 10.4831 18.2409 8.48523 17.5677C6.19596 16.7963 6.10085 15.4743 3.8818 14.507C1.9409 13.661 0.576577 13.5886 0 13.661V9.6299C0.237965 9.6299 0.47489 9.63966 0.70939 9.65757C3.87804 9.89964 6.32707 12.3411 9.28149 13.5117C10.7496 14.0094 12.1901 13.8043 12.7403 13.4619C13.86 12.7652 13.8103 12.6408 14.3577 12.1182L16.2162 10.2162C17.1094 9.5874 18.6075 8.18399 21.721 8.35766C25.6129 8.57475 27.6207 11.1307 28.5405 12.17Z" fill="url(#paint0_linear_3400_10410)"/>
<path d="M28.5405 3.82713C29.5672 4.98719 31.1351 5.05729 32 5.12966V8.82016C28.4043 8.82016 27.0819 7.45796 25.4904 5.9897C24.2823 4.87515 23.4173 4.45776 22.6687 4.26132C21.9202 4.06489 20.6798 4.04423 20.0311 4.26132C19.2106 4.53592 18.936 4.37405 16.4324 6.64929C14.5568 8.35388 14.9051 8.329 12.7403 9.27457C12.2069 9.50754 10.4831 9.89798 8.48523 9.2248C6.19596 8.45341 6.10085 7.13142 3.8818 6.16415C1.9409 5.31811 0.576577 5.24575 0 5.31811V1.28701C0.237965 1.28701 0.47489 1.29676 0.70939 1.31468C3.87804 1.55674 6.32707 3.99819 9.28149 5.16881C10.7496 5.66648 12.1901 5.4614 12.7403 5.11904C13.86 4.42231 13.8103 4.29789 14.3577 3.77534L16.2162 1.87334C17.1094 1.2445 18.6075 -0.158908 21.721 0.0147625C25.6129 0.23185 27.6207 2.78785 28.5405 3.82713Z" fill="url(#paint1_linear_3400_10410)"/>
<defs>
<linearGradient id="paint0_linear_3400_10410" x1="0.0401006" y1="11.7647" x2="32.0936" y2="11.7647" gradientUnits="userSpaceOnUse">
<stop stop-color="#29B8CE"/>
<stop offset="1" stop-color="#156089"/>
</linearGradient>
<linearGradient id="paint1_linear_3400_10410" x1="0.0401006" y1="3.42181" x2="32.0936" y2="3.42181" gradientUnits="userSpaceOnUse">
<stop stop-color="#29B8CE"/>
<stop offset="1" stop-color="#156089"/>
</linearGradient>
</defs>
</svg>
