<svg width="20" height="21" viewBox="0 0 20 21" fill="none" xmlns="http://www.w3.org/2000/svg">
<g clip-path="url(#clip0_1935_6689)">
<path d="M10 1.5C8.21997 1.5 6.47991 2.02784 4.99987 3.01677C3.51983 4.00571 2.36628 5.41131 1.68509 7.05585C1.0039 8.70038 0.82567 10.51 1.17294 12.2558C1.5202 14.0016 2.37737 15.6053 3.63604 16.864C4.89471 18.1226 6.49836 18.9798 8.24419 19.3271C9.99002 19.6743 11.7996 19.4961 13.4442 18.8149C15.0887 18.1337 16.4943 16.9802 17.4832 15.5001C18.4722 14.0201 19 12.28 19 10.5C18.9977 8.11377 18.0487 5.82594 16.3614 4.13862C14.6741 2.4513 12.3862 1.50234 10 1.5V1.5ZM10 18.4412C8.42939 18.4412 6.89404 17.9754 5.58812 17.1028C4.2822 16.2303 3.26436 14.99 2.66331 13.539C2.06226 12.0879 1.905 10.4912 2.21141 8.95075C2.51783 7.41031 3.27415 5.99533 4.38474 4.88474C5.49534 3.77415 6.91032 3.01782 8.45076 2.71141C9.99119 2.405 11.5879 2.56226 13.039 3.16331C14.49 3.76436 15.7303 4.7822 16.6028 6.08812C17.4754 7.39404 17.9412 8.92938 17.9412 10.5C17.9388 12.6054 17.1014 14.6239 15.6127 16.1127C14.1239 17.6014 12.1054 18.4388 10 18.4412ZM14.0588 10.5C14.0588 10.6404 14.003 10.7751 13.9038 10.8743C13.8045 10.9736 13.6698 11.0294 13.5294 11.0294H10.5294V14.0294C10.5294 14.1698 10.4736 14.3045 10.3744 14.4038C10.2751 14.503 10.1404 14.5588 10 14.5588C9.85959 14.5588 9.72494 14.503 9.62565 14.4038C9.52637 14.3045 9.47059 14.1698 9.47059 14.0294V11.0294H6.47059C6.33018 11.0294 6.19552 10.9736 6.09624 10.8743C5.99696 10.7751 5.94118 10.6404 5.94118 10.5C5.94118 10.3596 5.99696 10.2249 6.09624 10.1256C6.19552 10.0264 6.33018 9.97059 6.47059 9.97059H9.47059V6.97059C9.47059 6.83018 9.52637 6.69552 9.62565 6.59624C9.72494 6.49695 9.85959 6.44118 10 6.44118C10.1404 6.44118 10.2751 6.49695 10.3744 6.59624C10.4736 6.69552 10.5294 6.83018 10.5294 6.97059V9.97059H13.5294C13.6698 9.97059 13.8045 10.0264 13.9038 10.1256C14.003 10.2249 14.0588 10.3596 14.0588 10.5Z" fill="#1A1A1A"/>
</g>
<defs>
<clipPath id="clip0_1935_6689">
<rect width="18" height="18" fill="white" transform="translate(1 1.5)"/>
</clipPath>
</defs>
</svg>
