<svg width="32" height="33" viewBox="0 0 32 33" fill="none" xmlns="http://www.w3.org/2000/svg">
<g clip-path="url(#clip0_3310_9837)">
<path d="M23.5862 2.21997H8.41372C4.71686 2.21997 1.71997 5.21686 1.71997 8.91372V24.0862C1.71997 27.7831 4.71686 30.78 8.41372 30.78H23.5862C27.2831 30.78 30.28 27.7831 30.28 24.0862V8.91372C30.28 5.21686 27.2831 2.21997 23.5862 2.21997Z" fill="url(#paint0_radial_3310_9837)"/>
<path d="M23.5862 2.21997H8.41372C4.71686 2.21997 1.71997 5.21686 1.71997 8.91372V24.0862C1.71997 27.7831 4.71686 30.78 8.41372 30.78H23.5862C27.2831 30.78 30.28 27.7831 30.28 24.0862V8.91372C30.28 5.21686 27.2831 2.21997 23.5862 2.21997Z" fill="url(#paint1_radial_3310_9837)"/>
<path d="M16.0009 5.34375C12.9711 5.34375 12.5908 5.35703 11.4008 5.41113C10.2131 5.46558 9.40241 5.65356 8.69309 5.92945C7.95923 6.21438 7.33683 6.59559 6.71676 7.21588C6.09614 7.83606 5.71493 8.45846 5.42911 9.19199C5.15243 9.90153 4.96423 10.7126 4.91079 11.8997C4.85757 13.0898 4.84363 13.4702 4.84363 16.5001C4.84363 19.53 4.85702 19.9091 4.91101 21.0991C4.96568 22.2867 5.15366 23.0975 5.42933 23.8068C5.71448 24.5406 6.09569 25.1631 6.71598 25.7831C7.33593 26.4037 7.95834 26.7858 8.69164 27.0708C9.40151 27.3467 10.2124 27.5346 11.3998 27.5891C12.5899 27.6432 12.9698 27.6565 15.9995 27.6565C19.0297 27.6565 19.4088 27.6432 20.5987 27.5891C21.7864 27.5346 22.598 27.3467 23.3079 27.0708C24.0414 26.7858 24.6629 26.4037 25.2828 25.7831C25.9034 25.1631 26.2845 24.5406 26.5704 23.8071C26.8446 23.0975 27.033 22.2865 27.0887 21.0993C27.1422 19.9094 27.1561 19.53 27.1561 16.5001C27.1561 13.4702 27.1422 13.09 27.0887 11.8999C27.033 10.7122 26.8446 9.90164 26.5704 9.19232C26.2845 8.45846 25.9034 7.83606 25.2828 7.21588C24.6623 6.59537 24.0416 6.21416 23.3072 5.92956C22.596 5.65356 21.7848 5.46546 20.5971 5.41113C19.4071 5.35703 19.0282 5.34375 15.9974 5.34375H16.0009ZM15.0001 7.35422C15.2971 7.35377 15.6286 7.35422 16.0009 7.35422C18.9797 7.35422 19.3327 7.36493 20.509 7.41837C21.5967 7.46812 22.1871 7.64986 22.5804 7.80259C23.1011 8.00474 23.4722 8.2465 23.8625 8.63708C24.2529 9.02754 24.4946 9.39938 24.6973 9.92004C24.85 10.3127 25.032 10.9031 25.0815 11.9909C25.135 13.167 25.1466 13.5202 25.1466 16.4975C25.1466 19.4749 25.135 19.8282 25.0815 21.0042C25.0318 22.092 24.85 22.6823 24.6973 23.0752C24.4951 23.5958 24.2529 23.9665 23.8625 24.3568C23.472 24.7473 23.1013 24.9889 22.5804 25.1912C22.1876 25.3446 21.5967 25.5259 20.509 25.5756C19.3329 25.6291 18.9797 25.6407 16.0009 25.6407C13.0219 25.6407 12.6688 25.6291 11.4929 25.5756C10.4051 25.5254 9.81474 25.3437 9.42115 25.1909C8.9006 24.9887 8.52865 24.747 8.13818 24.3566C7.74771 23.9661 7.50607 23.5952 7.30336 23.0743C7.15063 22.6815 6.96867 22.0911 6.91914 21.0033C6.8657 19.8272 6.85499 19.474 6.85499 16.4948C6.85499 13.5156 6.8657 13.1642 6.91914 11.9881C6.96889 10.9003 7.15063 10.31 7.30336 9.9167C7.50562 9.39603 7.74771 9.0242 8.13829 8.63373C8.52876 8.24326 8.9006 8.0015 9.42126 7.79891C9.81452 7.64551 10.4051 7.46422 11.4929 7.41424C12.522 7.36772 12.9209 7.35377 15.0001 7.35143V7.35422ZM21.9561 9.2066C21.217 9.2066 20.6173 9.80569 20.6173 10.5449C20.6173 11.284 21.217 11.8837 21.9561 11.8837C22.6952 11.8837 23.2948 11.284 23.2948 10.5449C23.2948 9.8058 22.6952 9.20616 21.9561 9.20616V9.2066ZM16.0009 10.7708C12.837 10.7708 10.2717 13.3361 10.2717 16.5001C10.2717 19.6641 12.837 22.2282 16.0009 22.2282C19.1649 22.2282 21.7293 19.6641 21.7293 16.5001C21.7293 13.3362 19.1647 10.7708 16.0007 10.7708H16.0009ZM16.0009 12.7813C18.0546 12.7813 19.7197 14.4461 19.7197 16.5001C19.7197 18.5539 18.0546 20.2189 16.0009 20.2189C13.947 20.2189 12.2822 18.5539 12.2822 16.5001C12.2822 14.4461 13.947 12.7813 16.0009 12.7813Z" fill="white"/>
</g>
<defs>
<radialGradient id="paint0_radial_3310_9837" cx="0" cy="0" r="1" gradientUnits="userSpaceOnUse" gradientTransform="translate(9.30622 32.9796) rotate(-90) scale(28.3051 26.326)">
<stop stop-color="#FFDD55"/>
<stop offset="0.1" stop-color="#FFDD55"/>
<stop offset="0.5" stop-color="#FF543E"/>
<stop offset="1" stop-color="#C837AB"/>
</radialGradient>
<radialGradient id="paint1_radial_3310_9837" cx="0" cy="0" r="1" gradientUnits="userSpaceOnUse" gradientTransform="translate(-3.06394 4.27729) rotate(78.681) scale(12.6525 52.1541)">
<stop stop-color="#3771C8"/>
<stop offset="0.128" stop-color="#3771C8"/>
<stop offset="1" stop-color="#6600FF" stop-opacity="0"/>
</radialGradient>
<clipPath id="clip0_3310_9837">
<rect width="28.8" height="28.8" fill="white" transform="translate(1.59998 2.09998)"/>
</clipPath>
</defs>
</svg>
