<svg width="24" height="24" viewBox="0 0 24 24" fill="none" xmlns="http://www.w3.org/2000/svg">
<g clip-path="url(#clip0_2912_20786)">
<path d="M20.7033 4.00001H12.7912V2.4762C12.7912 2.27413 12.7079 2.08034 12.5595 1.93745C12.4111 1.79457 12.2099 1.71429 12 1.71429C11.7902 1.71429 11.5889 1.79457 11.4405 1.93745C11.2922 2.08034 11.2088 2.27413 11.2088 2.4762V4.00001H3.29671C2.87703 4.00001 2.47453 4.16055 2.17777 4.44632C1.88101 4.73209 1.71429 5.11968 1.71429 5.52382V16.9524C1.71429 17.3565 1.88101 17.7441 2.17777 18.0299C2.47453 18.3156 2.87703 18.4762 3.29671 18.4762H7.19342L5.05715 21.0476C4.96422 21.1594 4.90587 21.2941 4.8888 21.4363C4.87173 21.5786 4.89662 21.7226 4.96063 21.8518C5.02464 21.981 5.12516 22.0903 5.25069 22.167C5.37621 22.2438 5.52165 22.2849 5.67034 22.2857C5.78844 22.2865 5.90514 22.2611 6.01146 22.2116C6.11777 22.162 6.21085 22.0896 6.28352 22L9.211 18.4762H14.789L17.7165 22C17.7892 22.0896 17.8823 22.162 17.9886 22.2116C18.0949 22.2611 18.2116 22.2865 18.3297 22.2857C18.4784 22.2849 18.6238 22.2438 18.7493 22.167C18.8749 22.0903 18.9754 21.981 19.0394 21.8518C19.1034 21.7226 19.1283 21.5786 19.1112 21.4363C19.0941 21.2941 19.0358 21.1594 18.9429 21.0476L16.8066 18.4762H20.7033C21.123 18.4762 21.5255 18.3156 21.8222 18.0299C22.119 17.7441 22.2857 17.3565 22.2857 16.9524V5.52382C22.2857 5.11968 22.119 4.73209 21.8222 4.44632C21.5255 4.16055 21.123 4.00001 20.7033 4.00001ZM20.7033 16.9524H3.29671V5.52382H20.7033V16.9524Z" fill="#222222"/>
</g>
<defs>
<clipPath id="clip0_2912_20786">
<rect width="20.5714" height="20.5714" fill="white" transform="translate(1.71429 1.71429)"/>
</clipPath>
</defs>
</svg>
