<svg width="20" height="20" viewBox="0 0 20 20" fill="none" xmlns="http://www.w3.org/2000/svg">
<g clip-path="url(#clip0_3330_18654)">
<path d="M10.0001 1.42859C10.2843 1.42859 10.5568 1.54147 10.7578 1.7424C10.9587 1.94333 11.0716 2.21586 11.0716 2.50002V8.92859H17.5001C17.7843 8.92859 18.0568 9.04147 18.2578 9.2424C18.4587 9.44333 18.5716 9.71586 18.5716 10C18.5716 10.2842 18.4587 10.5567 18.2578 10.7576C18.0568 10.9586 17.7843 11.0714 17.5001 11.0714H11.0716V17.5C11.0716 17.7842 10.9587 18.0567 10.7578 18.2576C10.5568 18.4586 10.2843 18.5714 10.0001 18.5714C9.71598 18.5714 9.44346 18.4586 9.24253 18.2576C9.04159 18.0567 8.92871 17.7842 8.92871 17.5V11.0714H2.50014C2.21598 11.0714 1.94346 10.9586 1.74253 10.7576C1.54159 10.5567 1.42871 10.2842 1.42871 10C1.42871 9.71586 1.54159 9.44333 1.74253 9.2424C1.94346 9.04147 2.21598 8.92859 2.50014 8.92859H8.92871V2.50002C8.92871 2.21586 9.04159 1.94333 9.24253 1.7424C9.44346 1.54147 9.71598 1.42859 10.0001 1.42859V1.42859Z" fill="#008BD2"/>
</g>
<defs>
<clipPath id="clip0_3330_18654">
<rect width="17.1429" height="17.1429" fill="white" transform="translate(1.42871 1.42859)"/>
</clipPath>
</defs>
</svg>
