<svg width="24" height="24" viewBox="0 0 24 24" fill="none" xmlns="http://www.w3.org/2000/svg">
<g clip-path="url(#clip0_2912_20801)">
<path d="M19.8572 22.2857C19.6948 22.2857 19.5373 22.2306 19.4107 22.1297L16.0357 19.4483H13.4286C13.2391 19.4483 13.0575 19.3736 12.9235 19.2406C12.7896 19.1075 12.7143 18.9271 12.7143 18.739V15.1922C12.7143 15.0041 12.7896 14.8237 12.9235 14.6906C13.0575 14.5576 13.2391 14.4829 13.4286 14.4829H16.0357L19.4114 11.8015C19.5165 11.7182 19.643 11.666 19.7766 11.651C19.9101 11.6359 20.0453 11.6586 20.1664 11.7164C20.2876 11.7742 20.3898 11.8647 20.4615 11.9777C20.5331 12.0906 20.5713 12.2213 20.5714 12.3548V21.5764C20.5714 21.7645 20.4962 21.9449 20.3622 22.078C20.2283 22.211 20.0466 22.2857 19.8572 22.2857ZM14.1429 18.0296H16.2857C16.4481 18.0297 16.6055 18.0848 16.7322 18.1857L19.1429 20.1009V13.8303L16.7314 15.7455C16.605 15.8462 16.4478 15.9013 16.2857 15.9016H14.1429V18.0296Z" fill="#222222"/>
<path d="M10.5714 20.1577H4.85716V3.13324H10.5714V7.38935C10.5726 7.76526 10.7234 8.12546 10.9911 8.39128C11.2588 8.6571 11.6215 8.80693 12 8.80805H16.2857V10.9361H17.7143V7.38935C17.7168 7.29612 17.699 7.20346 17.662 7.11774C17.625 7.03202 17.5697 6.95528 17.5 6.8928L12.5 1.92734C12.4371 1.85807 12.3599 1.80317 12.2735 1.76643C12.1872 1.72969 12.0939 1.71198 12 1.71454H4.85716C4.47863 1.71566 4.11592 1.86549 3.84826 2.1313C3.58059 2.39712 3.42972 2.75732 3.42859 3.13324V20.1577C3.42972 20.5336 3.58059 20.8938 3.84826 21.1596C4.11592 21.4254 4.47863 21.5752 4.85716 21.5764H10.5714V20.1577ZM12 3.41698L16 7.38935H12V3.41698Z" fill="#222222"/>
</g>
<defs>
<clipPath id="clip0_2912_20801">
<rect width="20.5714" height="20.5714" fill="white" transform="translate(1.71429 1.71429)"/>
</clipPath>
</defs>
</svg>
