<svg width="20" height="21" viewBox="0 0 20 21" fill="none" xmlns="http://www.w3.org/2000/svg">
<g clip-path="url(#clip0_3256_14138)">
<g clip-path="url(#clip1_3256_14138)">
<path d="M1.45064 20.1741C0.847777 20.1741 0.35795 19.7318 0.35795 19.1848V1.81523C0.361718 1.27207 0.851545 0.825897 1.45064 0.825897H15.1319C15.7347 0.825897 16.2246 1.26819 16.2246 1.81523V19.1809C16.2246 19.7279 15.7347 20.1702 15.1319 20.1702H1.45064V20.1741Z" fill="#F4F4F4"/>
<path d="M14.9171 1.45441C15.309 1.45441 15.6255 1.74151 15.6255 2.09457V18.9054C15.6255 19.2585 15.309 19.5456 14.9171 19.5456H1.66918C1.27732 19.5456 0.960814 19.2585 0.960814 18.9054V2.09457C0.960814 1.74151 1.27732 1.45441 1.66918 1.45441H14.9133M15.1319 0.5H1.45064C0.651846 0.5 0 1.08972 0 1.81523V19.1809C0 19.9064 0.651846 20.4961 1.45064 20.4961H15.1319C15.9344 20.4961 16.5825 19.9064 16.5825 19.1809V1.81523C16.5825 1.08972 15.9307 0.5 15.1319 0.5Z" fill="#494949"/>
<path d="M13.6737 3.78225H2.91635C2.54594 3.78225 2.24567 4.09144 2.24567 4.47284C2.24567 4.85425 2.54594 5.16343 2.91635 5.16343H13.6737C14.0441 5.16343 14.3444 4.85425 14.3444 4.47284C14.3444 4.09144 14.0441 3.78225 13.6737 3.78225Z" fill="#494949"/>
<path d="M13.6737 6.78904H2.91635C2.54594 6.78904 2.24567 7.09823 2.24567 7.47963C2.24567 7.86104 2.54594 8.17022 2.91635 8.17022H13.6737C14.0441 8.17022 14.3444 7.86104 14.3444 7.47963C14.3444 7.09823 14.0441 6.78904 13.6737 6.78904Z" fill="#494949"/>
<path d="M13.6737 15.8366H2.91635C2.54594 15.8366 2.24567 16.1458 2.24567 16.5272C2.24567 16.9086 2.54594 17.2177 2.91635 17.2177H13.6737C14.0441 17.2177 14.3444 16.9086 14.3444 16.5272C14.3444 16.1458 14.0441 15.8366 13.6737 15.8366Z" fill="#494949"/>
<path d="M7.28711 9.79583H2.91635C2.54594 9.79583 2.24567 10.105 2.24567 10.4864C2.24567 10.8678 2.54594 11.177 2.91635 11.177H7.28711C7.65752 11.177 7.9578 10.8678 7.9578 10.4864C7.9578 10.105 7.65752 9.79583 7.28711 9.79583Z" fill="#494949"/>
<path d="M7.28711 12.8065H2.91635C2.54594 12.8065 2.24567 13.1157 2.24567 13.4971C2.24567 13.8785 2.54594 14.1877 2.91635 14.1877H7.28711C7.65752 14.1877 7.9578 13.8785 7.9578 13.4971C7.9578 13.1157 7.65752 12.8065 7.28711 12.8065Z" fill="#494949"/>
<path d="M13.165 14.5019H9.62698C8.98267 14.5019 8.45893 13.9627 8.45893 13.2992V10.6843C8.45893 10.0209 8.98267 9.48157 9.62698 9.48157H13.165C13.8093 9.48157 14.3331 10.0209 14.3331 10.6843V13.2992C14.3331 13.9627 13.8093 14.5019 13.165 14.5019ZM9.62698 10.1101C9.32178 10.1101 9.06933 10.3661 9.06933 10.6843V13.2992C9.06933 13.6135 9.31801 13.8734 9.62698 13.8734H13.165C13.4702 13.8734 13.7227 13.6174 13.7227 13.2992V10.6843C13.7227 10.37 13.474 10.1101 13.165 10.1101H9.62698Z" fill="#494949"/>
<path d="M16.2095 1.56693H16.5938C17.4265 1.56693 18.101 2.15276 18.101 2.87439V17.7493C18.101 18.4709 17.4265 19.0567 16.5938 19.0567H16.2095V1.56693Z" fill="#F4F4F4"/>
<path d="M16.5976 19.3438H15.8817V1.27983H16.5976C17.6112 1.27983 18.4363 1.9937 18.4363 2.87439V17.7493C18.4363 18.63 17.6112 19.3438 16.5976 19.3438ZM16.5448 18.7696H16.5976C17.2457 18.7696 17.7732 18.3118 17.7732 17.7493V2.87439C17.7732 2.31183 17.2457 1.85403 16.5976 1.85403H16.5448V18.7696Z" fill="#494949"/>
<path d="M18.1047 2.86275H18.4326C19.1409 2.86275 19.7174 3.36324 19.7174 3.97624V16.6474C19.7174 17.2643 19.1409 17.7609 18.4326 17.7609H18.1047V2.86275Z" fill="#F4F4F4"/>
<path d="M18.4326 18.0053H17.8222V2.61833H18.4326C19.2954 2.61833 20 3.22745 20 3.97624V16.6474C20 17.3962 19.2954 18.0053 18.4326 18.0053ZM18.3873 17.5165H18.4326C18.9827 17.5165 19.4348 17.1285 19.4348 16.6474V3.97624C19.4348 3.49903 18.9864 3.10718 18.4326 3.10718H18.3873V17.5165Z" fill="#494949"/>
<path d="M16.8802 7.12658H15.5426V13.8501H16.8802V7.12658Z" fill="#F4F4F4"/>
<path d="M16.0814 7.60378C16.3353 7.60378 16.5411 7.39187 16.5411 7.13046C16.5411 6.86904 16.3353 6.65713 16.0814 6.65713C15.8275 6.65713 15.6217 6.86904 15.6217 7.13046C15.6217 7.39187 15.8275 7.60378 16.0814 7.60378Z" fill="#494949"/>
<path d="M16.0814 14.3235C16.3353 14.3235 16.5411 14.1116 16.5411 13.8501C16.5411 13.5887 16.3353 13.3768 16.0814 13.3768C15.8275 13.3768 15.6217 13.5887 15.6217 13.8501C15.6217 14.1116 15.8275 14.3235 16.0814 14.3235Z" fill="#494949"/>
</g>
</g>
<defs>
<clipPath id="clip0_3256_14138">
<rect width="20" height="20" fill="white" transform="translate(0 0.5)"/>
</clipPath>
<clipPath id="clip1_3256_14138">
<rect width="20" height="20" fill="white" transform="translate(0 0.5)"/>
</clipPath>
</defs>
</svg>
