<svg width="24" height="24" viewBox="0 0 24 24" fill="none" xmlns="http://www.w3.org/2000/svg">
<g clip-path="url(#clip0_2912_20806)">
<path d="M9.66233 15.3514V8.64883C9.66247 8.56496 9.68516 8.48269 9.72803 8.41061C9.7709 8.33853 9.83236 8.27931 9.90598 8.23916C9.97961 8.199 10.0627 8.17939 10.1465 8.18237C10.2303 8.18535 10.3118 8.21081 10.3823 8.2561L15.5963 11.6064C15.6623 11.6487 15.7166 11.707 15.7542 11.7757C15.7918 11.8445 15.8116 11.9217 15.8116 12.0001C15.8116 12.0785 15.7918 12.1557 15.7542 12.2244C15.7166 12.2932 15.6623 12.3515 15.5963 12.3938L10.3823 15.745C10.3118 15.7903 10.2303 15.8158 10.1465 15.8188C10.0627 15.8217 9.97961 15.8021 9.90598 15.762C9.83236 15.7218 9.7709 15.6626 9.72803 15.5905C9.68516 15.5184 9.66247 15.4352 9.66233 15.3514Z" fill="#202020"/>
<path fill-rule="evenodd" clip-rule="evenodd" d="M12 3.11683C9.64406 3.11683 7.3846 4.05273 5.7187 5.71864C4.05279 7.38454 3.11689 9.644 3.11689 11.9999C3.11689 14.3559 4.05279 16.6154 5.7187 18.2813C7.3846 19.9472 9.64406 20.8831 12 20.8831C14.356 20.8831 16.6154 19.9472 18.2813 18.2813C19.9472 16.6154 20.8831 14.3559 20.8831 11.9999C20.8831 9.644 19.9472 7.38454 18.2813 5.71864C16.6154 4.05273 14.356 3.11683 12 3.11683ZM1.71429 11.9999C1.71429 6.31943 6.31949 1.71423 12 1.71423C17.6805 1.71423 22.2857 6.31943 22.2857 11.9999C22.2857 17.6805 17.6805 22.2857 12 22.2857C6.31949 22.2857 1.71429 17.6805 1.71429 11.9999Z" fill="#202020"/>
</g>
<defs>
<clipPath id="clip0_2912_20806">
<rect width="20.5714" height="20.5714" fill="white" transform="translate(1.71429 1.71423)"/>
</clipPath>
</defs>
</svg>
