<svg width="28" height="28" viewBox="0 0 28 28" fill="none" xmlns="http://www.w3.org/2000/svg">
<g clip-path="url(#clip0_3400_8010)">
<rect x="1.40002" y="4.90002" width="25.2" height="18.9" rx="4" fill="white"/>
<path d="M7.12732 23.8L7.12732 14.0663L4.10774 11.3046L1.40002 9.77203L1.40002 22.0823C1.40002 23.0327 2.1703 23.8 3.11825 23.8H7.12732Z" fill="#4285F4"/>
<path d="M20.8727 23.8H24.8818C25.8326 23.8 26.6 23.0299 26.6 22.0823L26.6 9.77213L23.5331 11.5275L20.8727 14.0663L20.8727 23.8Z" fill="#34A853"/>
<path d="M7.12732 14.0663L6.71644 10.263L7.12732 6.6229L14 11.7761L20.8727 6.6229L21.3323 10.0665L20.8727 14.0663L14 19.2194L7.12732 14.0663Z" fill="#EA4335"/>
<path d="M20.8727 6.6229V14.0663L26.6 9.77213V7.48173C26.6 5.35754 24.1745 4.1466 22.4765 5.42052L20.8727 6.6229Z" fill="#FBBC04"/>
<path d="M1.40002 9.77203L7.12732 14.0663L7.12732 6.6229L5.52357 5.42024C3.82257 4.14622 1.40002 5.35725 1.40002 7.48134L1.40002 9.77203Z" fill="#C5221F"/>
</g>
<defs>
<clipPath id="clip0_3400_8010">
<rect width="25.2" height="25.2" fill="white" transform="translate(1.40002 1.40002)"/>
</clipPath>
</defs>
</svg>
