<svg width="24" height="24" viewBox="0 0 24 24" fill="none" xmlns="http://www.w3.org/2000/svg">
<g clip-path="url(#clip0_3415_25885)">
<path d="M6.88887 10.6822C6.72832 10.5202 6.63868 10.3011 6.63969 10.073C6.64069 9.84495 6.73225 9.62663 6.89422 9.46608C7.0562 9.30553 7.27531 9.2159 7.50337 9.2169C7.73143 9.21791 7.94974 9.30947 8.11029 9.47144L11.1424 12.5036V2.57144C11.1424 2.34411 11.2327 2.12609 11.3935 1.96535C11.5542 1.8046 11.7723 1.71429 11.9996 1.71429C12.2269 1.71429 12.4449 1.8046 12.6057 1.96535C12.7664 2.12609 12.8567 2.34411 12.8567 2.57144V12.5036L15.8889 9.47144C15.9684 9.39124 16.0629 9.32748 16.167 9.28381C16.2711 9.24013 16.3829 9.2174 16.4958 9.2169C16.6087 9.2164 16.7206 9.23815 16.8251 9.28091C16.9297 9.32366 17.0247 9.38658 17.1049 9.46608C17.1851 9.54558 17.2489 9.64009 17.2926 9.74423C17.3362 9.84836 17.359 9.96008 17.3595 10.073C17.36 10.1859 17.3382 10.2978 17.2955 10.4024C17.2527 10.5069 17.1898 10.602 17.1103 10.6822L12.6103 15.1821C12.4465 15.3406 12.2275 15.4291 11.9996 15.4291C11.7717 15.4291 11.5527 15.3406 11.3889 15.1821L6.88887 10.6822ZM21.4282 13.7143C21.2008 13.7143 20.9828 13.8046 20.8221 13.9653C20.6613 14.1261 20.571 14.3441 20.571 14.5714V20.5714H3.42815V14.5714C3.42815 14.3441 3.33785 14.1261 3.1771 13.9653C3.01636 13.8046 2.79834 13.7143 2.57101 13.7143C2.34368 13.7143 2.12566 13.8046 1.96492 13.9653C1.80417 14.1261 1.71387 14.3441 1.71387 14.5714V20.5714C1.71387 21.0261 1.89448 21.4621 2.21597 21.7836C2.53746 22.1051 2.9735 22.2857 3.42815 22.2857H20.571C21.0257 22.2857 21.4617 22.1051 21.7832 21.7836C22.1047 21.4621 22.2853 21.0261 22.2853 20.5714V14.5714C22.2853 14.3441 22.195 14.1261 22.0342 13.9653C21.8735 13.8046 21.6555 13.7143 21.4282 13.7143Z" fill="#005280"/>
</g>
<defs>
<clipPath id="clip0_3415_25885">
<rect width="20.5714" height="20.5714" fill="white" transform="translate(1.71387 1.71429)"/>
</clipPath>
</defs>
</svg>
