<svg width="32" height="33" viewBox="0 0 32 33" fill="none" xmlns="http://www.w3.org/2000/svg">
<g clip-path="url(#clip0_3310_9855)">
<path d="M29.7644 9.90663C29.5992 9.32551 29.277 8.79571 28.8298 8.37C28.3826 7.94429 27.826 7.63753 27.2156 7.48025C24.9806 6.90002 15.9856 6.90002 15.9856 6.90002C15.9856 6.90002 6.99019 6.91759 4.75523 7.49781C4.14473 7.6551 3.58818 7.96188 3.14098 8.38761C2.69379 8.81334 2.37156 9.34316 2.20638 9.9243C1.53036 13.7044 1.26812 19.4645 2.22495 23.0934C2.39014 23.6745 2.71238 24.2043 3.15957 24.63C3.60676 25.0558 4.16331 25.3625 4.77379 25.5198C7.00875 26.1 16.004 26.1 16.004 26.1C16.004 26.1 24.999 26.1 27.2339 25.5198C27.8444 25.3625 28.401 25.0558 28.8482 24.6301C29.2954 24.2044 29.6176 23.6746 29.7828 23.0934C30.4959 19.3079 30.7156 13.5514 29.7644 9.90663Z" fill="#FF0000"/>
<path d="M12.7999 20.5L20.7999 16.5L12.7999 12.5V20.5Z" fill="white"/>
</g>
<defs>
<clipPath id="clip0_3310_9855">
<rect width="28.8" height="28.8" fill="white" transform="translate(1.59998 2.09998)"/>
</clipPath>
</defs>
</svg>
