<svg width="16" height="15" viewBox="0 0 16 15" fill="none" xmlns="http://www.w3.org/2000/svg">
<g clip-path="url(#clip0_4091_7896)">
<path d="M14.048 3.55341H2.52805C2.37528 3.55341 2.22878 3.49307 2.12076 3.38566C2.01273 3.27825 1.95205 3.13258 1.95205 2.98068C1.95205 2.82878 2.01273 2.68311 2.12076 2.5757C2.22878 2.46829 2.37528 2.40795 2.52805 2.40795H12.32C12.4728 2.40795 12.6193 2.34761 12.7273 2.2402C12.8354 2.1328 12.896 1.98712 12.896 1.83522C12.896 1.68333 12.8354 1.53765 12.7273 1.43025C12.6193 1.32284 12.4728 1.2625 12.32 1.2625H2.52805C2.06975 1.2625 1.63023 1.44352 1.30617 1.76574C0.982106 2.08796 0.800049 2.52499 0.800049 2.98068V12.1443C0.800049 12.6 0.982106 13.037 1.30617 13.3593C1.63023 13.6815 2.06975 13.8625 2.52805 13.8625H14.048C14.3536 13.8625 14.6466 13.7418 14.8626 13.527C15.0787 13.3122 15.2 13.0208 15.2 12.717V4.69886C15.2 4.39507 15.0787 4.10372 14.8626 3.8889C14.6466 3.67409 14.3536 3.55341 14.048 3.55341ZM14.048 12.717H2.52805C2.37528 12.717 2.22878 12.6567 2.12076 12.5493C2.01273 12.4419 1.95205 12.2962 1.95205 12.1443V4.60078C2.137 4.66597 2.33182 4.69915 2.52805 4.69886H14.048V12.717ZM10.592 8.42159C10.592 8.25168 10.6427 8.08558 10.7377 7.9443C10.8326 7.80303 10.9675 7.69291 11.1254 7.62789C11.2833 7.56287 11.457 7.54586 11.6246 7.579C11.7922 7.61215 11.9462 7.69397 12.067 7.81412C12.1878 7.93427 12.2701 8.08734 12.3034 8.25399C12.3368 8.42064 12.3197 8.59337 12.2543 8.75035C12.1889 8.90733 12.0781 9.0415 11.9361 9.1359C11.794 9.23029 11.6269 9.28068 11.456 9.28068C11.2269 9.28068 11.0071 9.19017 10.8451 9.02906C10.6831 8.86795 10.592 8.64943 10.592 8.42159Z" fill="white"/>
</g>
<defs>
<clipPath id="clip0_4091_7896">
<rect width="14.4" height="14.4" fill="white" transform="translate(0.800049 0.362503)"/>
</clipPath>
</defs>
</svg>
