<svg width="20" height="21" viewBox="0 0 20 21" fill="none" xmlns="http://www.w3.org/2000/svg">
<g clip-path="url(#clip0_1935_6978)">
<path d="M10 19.5C11.78 19.5 13.5201 18.9722 15.0001 17.9832C16.4802 16.9943 17.6337 15.5887 18.3149 13.9442C18.9961 12.2996 19.1743 10.49 18.8271 8.74419C18.4798 6.99836 17.6226 5.39471 16.364 4.13604C15.1053 2.87737 13.5016 2.0202 11.7558 1.67294C10.01 1.32567 8.20038 1.5039 6.55585 2.18509C4.91131 2.86628 3.50571 4.01983 2.51677 5.49987C1.52784 6.97991 1 8.71997 1 10.5C1.00466 12.8855 1.95437 15.172 3.64119 16.8588C5.32801 18.5456 7.61448 19.4953 10 19.5V19.5ZM10 2.55883C11.5706 2.55883 13.106 3.02457 14.4119 3.89716C15.7178 4.76974 16.7356 6.00999 17.3367 7.46105C17.9377 8.91211 18.095 10.5088 17.7886 12.0492C17.4822 13.5897 16.7258 15.0047 15.6153 16.1153C14.5047 17.2259 13.0897 17.9822 11.5492 18.2886C10.0088 18.595 8.4121 18.4377 6.96104 17.8367C5.50998 17.2356 4.26974 16.2178 3.39715 14.9119C2.52457 13.606 2.05882 12.0706 2.05882 10.5C2.06116 8.39459 2.89857 6.37608 4.38732 4.88732C5.87607 3.39857 7.89458 2.56116 10 2.55883ZM5.94118 10.5C5.94118 10.3596 5.99695 10.2249 6.09624 10.1257C6.19552 10.0264 6.33018 9.97059 6.47059 9.97059L13.5294 9.97059C13.6698 9.97059 13.8045 10.0264 13.9038 10.1257C14.003 10.2249 14.0588 10.3596 14.0588 10.5C14.0588 10.6404 14.003 10.7751 13.9038 10.8744C13.8045 10.9736 13.6698 11.0294 13.5294 11.0294L6.47059 11.0294C6.33018 11.0294 6.19552 10.9736 6.09624 10.8744C5.99695 10.7751 5.94118 10.6404 5.94118 10.5Z" fill="white"/>
</g>
<defs>
<clipPath id="clip0_1935_6978">
<rect width="18" height="18" fill="white" transform="matrix(-1 0 0 -1 19 19.5)"/>
</clipPath>
</defs>
</svg>
