<svg width="32" height="33" viewBox="0 0 32 33" fill="none" xmlns="http://www.w3.org/2000/svg">
<path d="M3.74631 16.3468C3.74571 18.4977 4.31211 20.5979 5.38911 22.449L3.64331 28.7738L10.1665 27.0766C11.9707 28.0512 13.9922 28.5619 16.0465 28.562H16.0519C22.8334 28.562 28.3537 23.0865 28.3566 16.3564C28.3579 13.0952 27.0791 10.0285 24.7557 7.72136C22.4327 5.41438 19.3432 4.14321 16.0514 4.14172C9.2691 4.14172 3.74921 9.61695 3.74641 16.3468" fill="url(#paint0_linear_3310_9850)"/>
<path d="M3.30695 16.3847C3.30625 18.6204 3.89295 20.8029 5.00835 22.7267L3.19995 29.2999L9.95705 27.5362C11.8189 28.5467 13.9151 29.0795 16.0481 29.0803H16.0535C23.0784 29.0803 28.7969 23.389 28.7999 16.3949C28.8011 13.0053 27.4763 9.81784 25.07 7.42008C22.6632 5.02262 19.4632 3.70134 16.0535 3.69995C9.02755 3.69995 3.30975 9.39045 3.30695 16.3847ZM7.33095 22.3954L7.07865 21.9967C6.01805 20.3178 5.45825 18.3777 5.45905 16.3855C5.46135 10.5721 10.2138 5.84235 16.0576 5.84235C18.8876 5.84355 21.5471 6.94183 23.5476 8.9345C25.5478 10.9274 26.6486 13.5765 26.6479 16.3941C26.6453 22.2075 21.8927 26.9378 16.0535 26.9378H16.0494C14.1481 26.9368 12.2833 26.4285 10.6572 25.4679L10.2702 25.2394L6.26035 26.2861L7.33095 22.3953V22.3954Z" fill="url(#paint1_linear_3310_9850)"/>
<path d="M12.8678 11.0573C12.6292 10.5311 12.3781 10.5205 12.1512 10.5113C11.9654 10.5033 11.753 10.5039 11.5408 10.5039C11.3284 10.5039 10.9833 10.5832 10.6916 10.8992C10.3996 11.2156 9.57678 11.98 9.57678 13.5347C9.57678 15.0896 10.7181 16.5922 10.8772 16.8032C11.0365 17.0139 13.0805 20.3065 16.3177 21.5732C19.0081 22.6259 19.5556 22.4165 20.1395 22.3638C20.7235 22.3112 22.0239 21.5995 22.2892 20.8616C22.5547 20.1238 22.5547 19.4913 22.4751 19.3591C22.3955 19.2275 22.1831 19.1484 21.8646 18.9904C21.546 18.8324 19.9802 18.0678 19.6883 17.9623C19.3963 17.857 19.184 17.8044 18.9716 18.1208C18.7592 18.4367 18.1493 19.1484 17.9634 19.3591C17.7777 19.5704 17.5918 19.5967 17.2734 19.4386C16.9547 19.2801 15.929 18.9468 14.7121 17.8703C13.7653 17.0326 13.1261 15.9982 12.9403 15.6818C12.7545 15.3658 12.9204 15.1946 13.0801 15.0371C13.2232 14.8955 13.3987 14.6681 13.5581 14.4836C13.7169 14.2991 13.7699 14.1674 13.8761 13.9566C13.9824 13.7457 13.9292 13.5611 13.8497 13.4031C13.7699 13.245 13.151 11.6821 12.8678 11.0573Z" fill="white"/>
<defs>
<linearGradient id="paint0_linear_3310_9850" x1="1239.31" y1="2467.35" x2="1239.31" y2="4.14172" gradientUnits="userSpaceOnUse">
<stop stop-color="#1FAF38"/>
<stop offset="1" stop-color="#60D669"/>
</linearGradient>
<linearGradient id="paint1_linear_3310_9850" x1="1283.2" y1="2563.7" x2="1283.2" y2="3.69995" gradientUnits="userSpaceOnUse">
<stop stop-color="#F9F9F9"/>
<stop offset="1" stop-color="white"/>
</linearGradient>
</defs>
</svg>
