<svg width="14" height="14" viewBox="0 0 14 14" fill="none" xmlns="http://www.w3.org/2000/svg">
<g clip-path="url(#clip0_3415_31)">
<path d="M7.00021 0.142853C7.22754 0.142853 7.44555 0.233159 7.6063 0.393904C7.76705 0.55465 7.85735 0.772667 7.85735 0.999996V6.14285H13.0002C13.2275 6.14285 13.4456 6.23316 13.6063 6.3939C13.767 6.55465 13.8574 6.77267 13.8574 7C13.8574 7.22732 13.767 7.44534 13.6063 7.60609C13.4456 7.76683 13.2275 7.85714 13.0002 7.85714H7.85735V13C7.85735 13.2273 7.76705 13.4453 7.6063 13.6061C7.44555 13.7668 7.22754 13.8571 7.00021 13.8571C6.77288 13.8571 6.55486 13.7668 6.39412 13.6061C6.23337 13.4453 6.14307 13.2273 6.14307 13V7.85714H1.00021C0.772881 7.85714 0.554863 7.76683 0.394118 7.60609C0.233372 7.44534 0.143066 7.22732 0.143066 7C0.143066 6.77267 0.233372 6.55465 0.394118 6.3939C0.554863 6.23316 0.772881 6.14285 1.00021 6.14285H6.14307V0.999996C6.14307 0.772667 6.23337 0.55465 6.39412 0.393904C6.55486 0.233159 6.77288 0.142853 7.00021 0.142853V0.142853Z" fill="white"/>
</g>
<defs>
<clipPath id="clip0_3415_31">
<rect width="13.7143" height="13.7143" fill="white" transform="translate(0.143066 0.142853)"/>
</clipPath>
</defs>
</svg>
