<svg width="32" height="33" viewBox="0 0 32 33" fill="none" xmlns="http://www.w3.org/2000/svg">
<g clip-path="url(#clip0_3310_9847)">
<path d="M26.1389 26.6393H21.8717V19.9565C21.8717 18.3629 21.8432 16.3115 19.6523 16.3115C17.4297 16.3115 17.0897 18.0478 17.0897 19.8405V26.6389H12.8225V12.8963H16.919V14.7744H16.9764C17.3863 14.0734 17.9787 13.4968 18.6905 13.1058C19.4023 12.7149 20.2068 12.5243 21.0183 12.5544C25.3433 12.5544 26.1407 15.3993 26.1407 19.1004L26.1389 26.6393ZM8.00753 11.0179C6.63986 11.0181 5.53095 9.90957 5.53073 8.54191C5.5305 7.17425 6.63896 6.06533 8.00663 6.06511C9.37429 6.06477 10.4832 7.17335 10.4834 8.54101C10.4835 9.19779 10.2228 9.82771 9.75844 10.2922C9.29413 10.7567 8.6643 11.0178 8.00753 11.0179ZM10.1412 26.6394H5.86946V12.8963H10.1411V26.6393L10.1412 26.6394ZM28.2663 2.10207H3.72521C2.56534 2.08902 1.61415 3.01816 1.59998 4.17803V28.8215C1.6137 29.9819 2.56478 30.912 3.7251 30.8998H28.2663C29.4291 30.9142 30.3839 29.9842 30.4 28.8215V4.17612C30.3834 3.014 29.4285 2.08497 28.2663 2.10016" fill="#0A66C2"/>
</g>
<defs>
<clipPath id="clip0_3310_9847">
<rect width="28.8" height="28.8" fill="white" transform="translate(1.59998 2.09998)"/>
</clipPath>
</defs>
</svg>
