<svg width="32" height="33" viewBox="0 0 32 33" fill="none" xmlns="http://www.w3.org/2000/svg">
<g clip-path="url(#clip0_3310_9833)">
<path d="M29.6 16.5C29.6 8.989 23.511 2.90002 16 2.90002C8.48894 2.90002 2.39996 8.98889 2.39996 16.5C2.39996 23.2881 7.37331 28.9146 13.875 29.9348V20.4313H10.4218V16.5H13.875V13.5038C13.875 10.0953 15.9054 8.21252 19.0118 8.21252C20.4999 8.21252 22.0562 8.47815 22.0562 8.47815V11.825H20.3413C18.6518 11.825 18.125 12.8734 18.125 13.949V16.5H21.8968L21.2939 20.4313H18.125V29.9348C24.6266 28.9146 29.6 23.2882 29.6 16.5Z" fill="#1877F2"/>
<path d="M21.2938 20.4313L21.8968 16.5H18.1249V13.949C18.1249 12.8733 18.6518 11.825 20.3413 11.825H22.0562V8.47815C22.0562 8.47815 20.4998 8.21252 19.0118 8.21252C15.9054 8.21252 13.8749 10.0953 13.8749 13.5038V16.5H10.4218V20.4313H13.8749V29.9348C14.5779 30.045 15.2884 30.1002 15.9999 30.1C16.7115 30.1002 17.422 30.045 18.1249 29.9348V20.4313H21.2938Z" fill="white"/>
</g>
<defs>
<clipPath id="clip0_3310_9833">
<rect width="27.4286" height="27.4286" fill="white" transform="translate(2.28571 2.78577)"/>
</clipPath>
</defs>
</svg>
