<svg width="12" height="12" viewBox="0 0 12 12" fill="none" xmlns="http://www.w3.org/2000/svg">
<g clip-path="url(#clip0_3220_2736)">
<path d="M9.93062 9.31645C9.93291 9.31301 9.93636 9.30957 9.93865 9.30612C10.6906 8.41186 11.1429 7.25931 11.1429 6C11.1429 4.74069 10.6906 3.58814 9.9398 2.69388C9.9375 2.69043 9.93406 2.68814 9.93176 2.68469C9.91914 2.66977 9.90766 2.656 9.89503 2.64222C9.89044 2.63648 9.88585 2.63189 9.88125 2.62615L9.83419 2.57219L9.83304 2.57105C9.81582 2.55153 9.79745 2.53202 9.78023 2.5125L9.77909 2.51135C9.74235 2.47232 9.70562 2.43329 9.66773 2.39541L9.66659 2.39426L9.61148 2.33916L9.60804 2.33571C9.59082 2.3185 9.5736 2.30242 9.55638 2.28635C9.55064 2.28061 9.5449 2.27487 9.53801 2.26913C9.52654 2.25765 9.51506 2.24732 9.50358 2.23699C9.50013 2.23355 9.49554 2.2301 9.4921 2.22551C8.57603 1.37602 7.34886 0.857143 6 0.857143C4.65115 0.857143 3.42398 1.37602 2.50676 2.22551C2.50332 2.22895 2.49873 2.2324 2.49528 2.23699C2.48381 2.24732 2.47233 2.2588 2.46085 2.27028C2.45511 2.27602 2.44937 2.28176 2.44248 2.2875C2.42526 2.30357 2.40804 2.32079 2.39082 2.33686L2.38738 2.34031L2.33227 2.39541L2.33113 2.39656C2.29324 2.43444 2.25651 2.47347 2.21977 2.5125L2.21863 2.51365C2.20026 2.53316 2.18304 2.55268 2.16582 2.57219L2.16467 2.57334C2.1486 2.59056 2.13253 2.60893 2.11761 2.6273C2.11301 2.63304 2.10842 2.63763 2.10383 2.64337C2.0912 2.65714 2.07972 2.67207 2.0671 2.68584C2.0648 2.68929 2.06136 2.69158 2.05906 2.69503C1.30944 3.58814 0.857147 4.74069 0.857147 6C0.857147 7.25931 1.30944 8.41186 2.06021 9.30612C2.0625 9.30957 2.06595 9.31301 2.06824 9.31645L2.10383 9.35893C2.10842 9.36467 2.11301 9.36926 2.11761 9.375L2.16467 9.42896C2.16467 9.4301 2.16582 9.4301 2.16582 9.43125C2.18304 9.45077 2.20026 9.47028 2.21863 9.48865L2.21977 9.4898C2.25651 9.52883 2.29324 9.56786 2.32998 9.60574L2.33113 9.60689C2.34949 9.62526 2.36671 9.64362 2.38508 9.66084L2.38852 9.66429C2.42641 9.70217 2.46544 9.7389 2.50447 9.77449C3.42398 10.624 4.65115 11.1429 6 11.1429C7.34886 11.1429 8.57602 10.624 9.49324 9.77449C9.53235 9.73864 9.57063 9.7019 9.60804 9.66429L9.61148 9.66084C9.62985 9.64248 9.64822 9.62526 9.66544 9.60689L9.66659 9.60574C9.70447 9.56786 9.7412 9.52883 9.77679 9.4898L9.77794 9.48865C9.79516 9.46913 9.81353 9.45077 9.83074 9.43125C9.83074 9.4301 9.83189 9.4301 9.83189 9.42896C9.84796 9.41174 9.86404 9.39337 9.87896 9.375C9.88355 9.36926 9.88814 9.36467 9.89273 9.35893C9.90571 9.34509 9.91835 9.33093 9.93062 9.31645ZM9.97768 7.67946C9.81926 8.0537 9.61034 8.40038 9.35549 8.71492C9.06847 8.46688 8.75467 8.25164 8.4199 8.07321C8.55307 7.53482 8.63572 6.94362 8.65753 6.32143H10.3049C10.2704 6.79094 10.1602 7.24668 9.97768 7.67946ZM10.3049 5.67857H8.65753C8.63572 5.05638 8.55307 4.46518 8.4199 3.92679C8.75625 3.7477 9.06965 3.53189 9.35549 3.28508C9.90946 3.96694 10.2408 4.80238 10.3049 5.67857ZM7.67947 2.02232C8.13521 2.21518 8.54962 2.48151 8.91467 2.81671C8.70261 2.99728 8.47435 3.1579 8.23279 3.29656C8.05256 2.77998 7.82182 2.33112 7.55319 1.97181C7.59567 1.98788 7.63814 2.0051 7.67947 2.02232ZM6.63942 10.0649C6.53381 10.1476 6.42819 10.2107 6.32143 10.2532V8.12372C6.77693 8.1555 7.22487 8.25694 7.64962 8.42449C7.55434 8.70689 7.44414 8.96747 7.31671 9.20281C7.11697 9.57475 6.88279 9.87207 6.63942 10.0649ZM7.31671 2.79719C7.44299 3.03367 7.55434 3.29426 7.64962 3.57551C7.22487 3.74306 6.77693 3.8445 6.32143 3.87628V1.74796C6.42705 1.79043 6.53381 1.85242 6.63942 1.93623C6.88279 2.12793 7.11697 2.42526 7.31671 2.79719ZM6.32143 7.47972V6.32143H8.01467C7.99631 6.82883 7.93317 7.3213 7.82756 7.78852L7.82411 7.8023C7.34235 7.61961 6.83573 7.51085 6.32143 7.47972ZM6.32143 5.67857V4.52028C6.8472 4.48814 7.3523 4.37679 7.82411 4.1977L7.82756 4.21148C7.93317 4.6787 7.99631 5.17003 8.01467 5.67857H6.32143ZM5.67858 6.32143V7.47972C5.15281 7.51186 4.64771 7.62321 4.1759 7.8023L4.17245 7.78852C4.06684 7.3213 4.0037 6.82998 3.98534 6.32143H5.67858ZM3.98534 5.67857C4.0037 5.17117 4.06684 4.6787 4.17245 4.21148L4.1759 4.1977C4.64771 4.37679 5.15166 4.48814 5.67858 4.52028V5.67857H3.98534ZM5.67858 8.12372V10.252C5.57296 10.2096 5.4662 10.1476 5.36059 10.0638C5.11722 9.87207 4.88189 9.5736 4.68215 9.20166C4.55587 8.96518 4.44452 8.70459 4.34924 8.42334C4.77628 8.25574 5.22054 8.15587 5.67858 8.12372ZM5.67858 3.87628C5.22308 3.8445 4.77514 3.74306 4.35039 3.57551C4.44567 3.29311 4.55587 3.03253 4.6833 2.79719C4.88304 2.42526 5.11722 2.12679 5.36174 1.93508C5.46735 1.85242 5.57296 1.78929 5.67972 1.74681V3.87628H5.67858ZM4.32054 2.02232C4.36301 2.0051 4.40434 1.98788 4.44682 1.97181C4.17819 2.33112 3.94745 2.77998 3.76722 3.29656C3.52615 3.1588 3.29771 2.99809 3.08534 2.81671C3.45039 2.48151 3.8648 2.21518 4.32054 2.02232ZM2.02233 4.32054C2.18074 3.9463 2.38967 3.59962 2.64452 3.28508C2.93036 3.53189 3.24375 3.7477 3.58011 3.92679C3.44694 4.46518 3.36429 5.05638 3.34248 5.67857H1.69516C1.7296 5.20906 1.8398 4.75332 2.02233 4.32054ZM1.69516 6.32143H3.34248C3.36429 6.94362 3.44694 7.53482 3.58011 8.07321C3.24534 8.25164 2.93153 8.46688 2.64452 8.71492C2.09055 8.03307 1.75918 7.19762 1.69516 6.32143ZM4.32054 9.97768C3.8648 9.78482 3.45039 9.5185 3.08534 9.18329C3.29771 9.00191 3.52615 8.84235 3.76722 8.70344C3.94745 9.22003 4.17819 9.66888 4.44682 10.0282C4.40434 10.0121 4.36187 9.9949 4.32054 9.97768ZM7.67947 9.97768C7.63699 9.9949 7.59567 10.0121 7.55319 10.0282C7.82182 9.66888 8.05256 9.22003 8.23279 8.70344C8.47386 8.8412 8.7023 9.00191 8.91467 9.18329C8.55165 9.5171 8.13379 9.78583 7.67947 9.97768Z" fill="white"/>
</g>
<defs>
<clipPath id="clip0_3220_2736">
<rect width="10.2857" height="10.2857" fill="white" transform="translate(0.857147 0.857143)"/>
</clipPath>
</defs>
</svg>
